<?xml version="1.0" encoding="UTF-8"?>
<!DOCTYPE svg PUBLIC "-//W3C//DTD SVG 1.1//EN" "http://www.w3.org/Graphics/SVG/1.1/DTD/svg11.dtd">
<svg xmlns="http://www.w3.org/2000/svg" version="1.1" width="200px" height="200px" style="shape-rendering:geometricPrecision; text-rendering:geometricPrecision; image-rendering:optimizeQuality; fill-rule:evenodd; clip-rule:evenodd" xmlns:xlink="http://www.w3.org/1999/xlink">
<g><path style="opacity:1" fill="#04c75a" d="M 13.5,-0.5 C 70.8333,-0.5 128.167,-0.5 185.5,-0.5C 192.167,2.16667 196.833,6.83333 199.5,13.5C 199.5,70.8333 199.5,128.167 199.5,185.5C 196.833,192.167 192.167,196.833 185.5,199.5C 128.167,199.5 70.8333,199.5 13.5,199.5C 6.83333,196.833 2.16667,192.167 -0.5,185.5C -0.5,128.167 -0.5,70.8333 -0.5,13.5C 2.16667,6.83333 6.83333,2.16667 13.5,-0.5 Z"/></g>
<g><path style="opacity:1" fill="#fefefe" d="M 112.5,100.5 C 112.783,101.289 113.283,101.956 114,102.5C 114.5,88.1705 114.667,73.8372 114.5,59.5C 122.833,59.5 131.167,59.5 139.5,59.5C 139.5,86.1667 139.5,112.833 139.5,139.5C 131.14,139.831 122.807,139.498 114.5,138.5C 105.157,125.138 95.8236,111.804 86.5,98.5C 86.2172,97.7109 85.7172,97.0442 85,96.5C 84.5001,110.829 84.3334,125.163 84.5,139.5C 76.1667,139.5 67.8333,139.5 59.5,139.5C 59.5,112.833 59.5,86.1667 59.5,59.5C 67.8599,59.1688 76.1932,59.5021 84.5,60.5C 93.843,73.8624 103.176,87.1957 112.5,100.5 Z"/></g>
<g><path style="opacity:1" fill="#a4eac3" d="M 114.5,59.5 C 114.667,73.8372 114.5,88.1705 114,102.5C 113.283,101.956 112.783,101.289 112.5,100.5C 113.167,86.8333 113.833,73.1667 114.5,59.5 Z"/></g>
<g><path style="opacity:1" fill="#a0e9bf" d="M 86.5,98.5 C 85.8333,112.167 85.1667,125.833 84.5,139.5C 84.3334,125.163 84.5001,110.829 85,96.5C 85.7172,97.0442 86.2172,97.7109 86.5,98.5 Z"/></g>
</svg>
