<?xml version="1.0" standalone="no"?>
<!DOCTYPE svg PUBLIC "-//W3C//DTD SVG 20010904//EN"
 "http://www.w3.org/TR/2001/REC-SVG-20010904/DTD/svg10.dtd">
<svg version="1.0" xmlns="http://www.w3.org/2000/svg"
 width="164.000000pt" height="194.000000pt" viewBox="0 0 164.000000 194.000000"
 preserveAspectRatio="xMidYMid meet">

<g transform="translate(0.000000,194.000000) scale(0.100000,-0.100000)"
fill="#000000" stroke="none">
<path d="M782 1868 c-17 -17 -17 -319 0 -336 15 -15 51 -15 66 0 8 8 12 60 12
168 0 164 -4 180 -45 180 -12 0 -26 -5 -33 -12z"/>
<path d="M546 934 c-36 -35 -7 -104 42 -104 29 0 62 34 62 63 0 49 -70 76
-104 41z"/>
<path d="M997 932 c-36 -40 -9 -102 45 -102 49 0 78 69 42 104 -21 22 -67 20
-87 -2z"/>
<path d="M565 705 c-14 -13 -25 -33 -25 -45 0 -35 56 -134 98 -172 50 -45 99
-62 182 -62 120 1 205 57 257 171 29 62 23 99 -20 123 -40 23 -77 5 -104 -51
-32 -67 -74 -99 -129 -99 -67 0 -100 22 -133 89 -40 78 -80 93 -126 46z"/>
</g>
</svg>
