<?xml version="1.0" standalone="no"?>
<!DOCTYPE svg PUBLIC "-//W3C//DTD SVG 20010904//EN"
 "http://www.w3.org/TR/2001/REC-SVG-20010904/DTD/svg10.dtd">
<svg version="1.0" xmlns="http://www.w3.org/2000/svg"
 width="1440.000000pt" height="1024.000000pt" viewBox="0 0 1440.000000 1024.000000"
 preserveAspectRatio="xMidYMid meet">

<g transform="translate(0.000000,1024.000000) scale(0.100000,-0.100000)"
fill="#000000" stroke="none">
<path d="M8422 6145 l-29 -25 -8 -198 c-12 -324 3 -382 95 -382 33 0 48 6 71
30 l30 29 -3 262 -3 261 -28 24 c-37 32 -86 32 -125 -1z"/>
<path d="M8045 4606 c-97 -97 34 -239 136 -148 69 62 24 172 -72 172 -29 0
-47 -7 -64 -24z"/>
<path d="M8787 4610 c-48 -38 -44 -130 7 -165 11 -8 38 -15 59 -15 55 0 97 43
97 100 0 84 -97 132 -163 80z"/>
<path d="M8085 4215 c-37 -36 -33 -90 11 -178 92 -185 209 -253 418 -245 123
5 188 31 271 109 61 58 135 190 135 241 0 36 -24 83 -45 92 -28 10 -89 6 -107
-7 -9 -7 -31 -44 -48 -81 -56 -118 -124 -166 -237 -166 -102 0 -166 45 -219
156 -19 41 -45 81 -57 89 -34 24 -94 19 -122 -10z"/>
</g>
</svg>
