<?xml version="1.0" standalone="no"?>
<!DOCTYPE svg PUBLIC "-//W3C//DTD SVG 20010904//EN"
 "http://www.w3.org/TR/2001/REC-SVG-20010904/DTD/svg10.dtd">
<svg version="1.0" xmlns="http://www.w3.org/2000/svg"
 width="390.000000pt" height="844.000000pt" viewBox="0 0 390.000000 844.000000"
 preserveAspectRatio="xMidYMid meet">

<g transform="translate(0.000000,844.000000) scale(0.100000,-0.100000)"
fill="#000000" stroke="none">
<path d="M1907 3328 c-26 -20 -36 -207 -13 -243 19 -29 38 -32 60 -9 23 23 23
225 0 248 -19 19 -25 20 -47 4z"/>
<path d="M1734 2656 c-3 -8 -4 -25 -2 -38 2 -18 9 -23 32 -23 36 0 56 27 40
53 -14 22 -62 28 -70 8z"/>
<path d="M2050 2651 c-16 -31 4 -63 37 -59 34 4 52 32 37 56 -16 26 -60 28
-74 3z"/>
<path d="M1759 2491 c-21 -17 -22 -21 -9 -52 34 -88 92 -129 179 -129 66 0
123 29 155 78 38 57 42 87 15 105 -29 21 -53 8 -75 -39 -17 -36 -58 -64 -94
-64 -36 0 -77 28 -94 64 -23 49 -48 61 -77 37z"/>
</g>
</svg>
