<?xml version="1.0" standalone="no"?>
<!DOCTYPE svg PUBLIC "-//W3C//DTD SVG 20010904//EN"
 "http://www.w3.org/TR/2001/REC-SVG-20010904/DTD/svg10.dtd">
<svg version="1.0" xmlns="http://www.w3.org/2000/svg"
 width="68.000000pt" height="69.000000pt" viewBox="0 0 68.000000 69.000000"
 preserveAspectRatio="xMidYMid meet">

<g transform="translate(0.000000,69.000000) scale(0.100000,-0.100000)"
fill="#000000" stroke="none">
<path d="M213 569 c-95 -36 -165 -142 -147 -222 11 -51 31 -82 79 -124 43 -37
45 -40 35 -73 -20 -71 -15 -74 49 -30 53 35 67 40 119 40 133 0 243 77 266
187 18 82 -52 186 -150 223 -72 27 -180 26 -251 -1z m27 -140 c0 -6 -9 -13
-20 -16 -15 -4 -20 -15 -22 -54 -4 -66 -22 -67 -26 -3 -2 43 -7 53 -23 57 -12
3 -18 10 -14 16 8 15 105 14 105 0z m57 -1 c6 -7 18 -37 28 -65 19 -54 14 -82
-9 -50 -17 22 -62 22 -70 0 -4 -10 -10 -13 -16 -7 -8 8 17 95 36 126 7 12 20
10 31 -4z m83 -43 c0 -52 1 -55 26 -55 16 0 24 -5 22 -12 -3 -7 -20 -13 -39
-13 l-34 0 -3 54 c-3 58 2 81 18 81 6 0 10 -24 10 -55z m90 26 l5 -23 24 26
c13 14 28 23 33 20 5 -4 0 -17 -12 -29 l-22 -24 22 -31 c15 -21 19 -35 12 -42
-6 -6 -17 2 -33 24 l-24 33 -5 -30 c-9 -53 -25 -32 -28 38 -2 52 0 68 10 65 7
-3 15 -15 18 -27z"/>
<path d="M275 387 c-8 -19 -2 -31 13 -26 5 2 6 13 2 24 -7 19 -8 19 -15 2z"/>
</g>
</svg>
