<?xml version="1.0" standalone="no"?>
<!DOCTYPE svg PUBLIC "-//W3C//DTD SVG 20010904//EN"
 "http://www.w3.org/TR/2001/REC-SVG-20010904/DTD/svg10.dtd">
<svg version="1.0" xmlns="http://www.w3.org/2000/svg"
 width="229.000000pt" height="287.000000pt" viewBox="0 0 229.000000 287.000000"
 preserveAspectRatio="xMidYMid meet">

<g transform="translate(0.000000,287.000000) scale(0.100000,-0.100000)"
fill="#000000" stroke="none">
<path d="M1015 2785 l-130 -74 -145 -1 -145 0 -85 -139 -84 -139 -138 -72
-138 -72 0 -154 0 -154 -70 -141 -71 -140 67 -137 c61 -125 69 -149 93 -279
l26 -141 114 -84 c108 -79 119 -90 203 -210 l89 -128 145 0 145 0 130 -76 129
-75 133 73 132 73 165 5 164 5 106 155 105 154 97 56 98 55 0 143 0 143 71
134 70 134 -70 130 -71 130 0 160 0 160 -138 98 -138 97 -64 118 -63 118 -158
0 -159 0 -138 75 c-76 41 -140 75 -143 75 -2 -1 -62 -34 -134 -75z m296 -74
l96 -51 151 0 151 0 61 -112 61 -113 129 -90 129 -90 1 -153 0 -153 65 -119
c36 -66 65 -124 65 -130 0 -6 -29 -69 -65 -140 l-65 -130 0 -127 0 -128 -88
-48 -87 -48 -100 -149 -100 -149 -152 -1 -153 0 -124 -70 c-68 -38 -128 -70
-134 -70 -6 0 -61 30 -124 67 l-113 68 -145 5 -145 5 -80 115 c-73 106 -88
121 -190 195 l-110 81 -22 129 c-20 118 -28 142 -88 263 l-65 133 65 123 65
123 0 151 0 151 133 70 132 70 83 136 84 135 141 1 142 0 120 69 120 69 30
-19 c17 -9 73 -41 126 -69z"/>
</g>
</svg>
